<svg width="1070" height="1006" viewBox="0 0 1070 1006" fill="none" xmlns="http://www.w3.org/2000/svg">
<circle cx="567" cy="503" r="502.5" fill="#1E1E1E" stroke="black"/>
<mask id="path-2-inside-1_9_4" fill="white">
<path d="M568.447 326.447C601.272 326.447 633.519 335.087 661.947 351.5C690.374 367.913 713.981 391.519 730.394 419.947L568.447 513.447L568.447 326.447Z"/>
</mask>
<path d="M568.447 326.447C601.272 326.447 633.519 335.087 661.947 351.5C690.374 367.913 713.981 391.519 730.394 419.947L568.447 513.447L568.447 326.447Z" stroke="white" stroke-width="2" mask="url(#path-2-inside-1_9_4)"/>
<mask id="path-3-inside-2_9_4" fill="white">
<path d="M406.5 419.947C422.913 391.519 446.519 367.913 474.947 351.5C503.374 335.087 535.621 326.447 568.447 326.447L568.447 513.447L406.5 419.947Z"/>
</mask>
<path d="M406.5 419.947C422.913 391.519 446.519 367.913 474.947 351.5C503.374 335.087 535.621 326.447 568.447 326.447L568.447 513.447L406.5 419.947Z" stroke="white" stroke-width="2" mask="url(#path-3-inside-2_9_4)"/>
<mask id="path-4-inside-3_9_4" fill="white">
<path d="M406.5 606.947C390.087 578.519 381.447 546.272 381.447 513.447C381.447 480.621 390.087 448.374 406.5 419.947L568.447 513.447L406.5 606.947Z"/>
</mask>
<path d="M406.5 606.947C390.087 578.519 381.447 546.272 381.447 513.447C381.447 480.621 390.087 448.374 406.5 419.947L568.447 513.447L406.5 606.947Z" stroke="white" stroke-width="2" mask="url(#path-4-inside-3_9_4)"/>
<mask id="path-5-inside-4_9_4" fill="white">
<path d="M568.447 700.447C535.621 700.447 503.374 691.806 474.947 675.394C446.519 658.981 422.913 635.374 406.5 606.947L568.447 513.447L568.447 700.447Z"/>
</mask>
<path d="M568.447 700.447C535.621 700.447 503.374 691.806 474.947 675.394C446.519 658.981 422.913 635.374 406.5 606.947L568.447 513.447L568.447 700.447Z" stroke="white" stroke-width="2" mask="url(#path-5-inside-4_9_4)"/>
<mask id="path-6-inside-5_9_4" fill="white">
<path d="M730.394 606.947C713.981 635.374 690.374 658.981 661.947 675.394C633.519 691.806 601.272 700.447 568.447 700.447L568.447 513.447L730.394 606.947Z"/>
</mask>
<path d="M730.394 606.947C713.981 635.374 690.374 658.981 661.947 675.394C633.519 691.806 601.272 700.447 568.447 700.447L568.447 513.447L730.394 606.947Z" stroke="white" stroke-width="2" mask="url(#path-6-inside-5_9_4)"/>
<mask id="path-7-inside-6_9_4" fill="white">
<path d="M730.394 419.947C746.806 448.374 755.447 480.621 755.447 513.447C755.447 546.272 746.806 578.519 730.394 606.947L568.447 513.447L730.394 419.947Z"/>
</mask>
<path d="M730.394 419.947C746.806 448.374 755.447 480.621 755.447 513.447C755.447 546.272 746.806 578.519 730.394 606.947L568.447 513.447L730.394 419.947Z" stroke="white" stroke-width="2" mask="url(#path-7-inside-6_9_4)"/>
<mask id="path-8-inside-7_9_4" fill="white">
<path d="M730.394 419.947C746.806 448.374 755.447 480.621 755.447 513.447C755.447 546.272 746.806 578.519 730.394 606.947L568.447 513.447L730.394 419.947Z"/>
</mask>
<path d="M730.394 419.947C746.806 448.374 755.447 480.621 755.447 513.447C755.447 546.272 746.806 578.519 730.394 606.947L568.447 513.447L730.394 419.947Z" stroke="white" stroke-width="2" mask="url(#path-8-inside-7_9_4)"/>
<mask id="path-9-inside-8_9_4" fill="white">
<path d="M568.5 151.233C631.916 151.233 694.214 167.926 749.134 199.634C804.053 231.341 849.659 276.947 881.367 331.867L568.5 512.5L568.5 151.233Z"/>
</mask>
<path d="M568.5 151.233C631.916 151.233 694.214 167.926 749.134 199.634C804.053 231.341 849.659 276.947 881.367 331.867L568.5 512.5L568.5 151.233Z" stroke="white" stroke-width="2" mask="url(#path-9-inside-8_9_4)"/>
<mask id="path-10-inside-9_9_4" fill="white">
<path d="M255.634 331.867C287.341 276.947 332.947 231.341 387.867 199.634C442.786 167.926 505.085 151.233 568.5 151.233L568.5 512.5L255.634 331.867Z"/>
</mask>
<path d="M255.634 331.867C287.341 276.947 332.947 231.341 387.867 199.634C442.786 167.926 505.085 151.233 568.5 151.233L568.5 512.5L255.634 331.867Z" stroke="white" stroke-width="2" mask="url(#path-10-inside-9_9_4)"/>
<mask id="path-11-inside-10_9_4" fill="white">
<path d="M255.634 693.134C223.926 638.214 207.233 575.916 207.233 512.5C207.233 449.084 223.926 386.786 255.634 331.867L568.5 512.5L255.634 693.134Z"/>
</mask>
<path d="M255.634 693.134C223.926 638.214 207.233 575.916 207.233 512.5C207.233 449.084 223.926 386.786 255.634 331.867L568.5 512.5L255.634 693.134Z" stroke="white" stroke-width="2" mask="url(#path-11-inside-10_9_4)"/>
<mask id="path-12-inside-11_9_4" fill="white">
<path d="M568.5 873.767C505.084 873.767 442.786 857.074 387.867 825.367C332.947 793.659 287.341 748.053 255.634 693.134L568.5 512.5L568.5 873.767Z"/>
</mask>
<path d="M568.5 873.767C505.084 873.767 442.786 857.074 387.867 825.367C332.947 793.659 287.341 748.053 255.634 693.134L568.5 512.5L568.5 873.767Z" stroke="white" stroke-width="2" mask="url(#path-12-inside-11_9_4)"/>
<mask id="path-13-inside-12_9_4" fill="white">
<path d="M881.367 693.134C849.659 748.053 804.053 793.659 749.134 825.367C694.214 857.074 631.916 873.767 568.5 873.767L568.5 512.5L881.367 693.134Z"/>
</mask>
<path d="M881.367 693.134C849.659 748.053 804.053 793.659 749.134 825.367C694.214 857.074 631.916 873.767 568.5 873.767L568.5 512.5L881.367 693.134Z" stroke="white" stroke-width="2" mask="url(#path-13-inside-12_9_4)"/>
<mask id="path-14-inside-13_9_4" fill="white">
<path d="M881.366 331.867C913.074 386.786 929.767 449.085 929.767 512.5C929.767 575.916 913.074 638.214 881.366 693.134L568.5 512.5L881.366 331.867Z"/>
</mask>
<path d="M881.366 331.867C913.074 386.786 929.767 449.085 929.767 512.5C929.767 575.916 913.074 638.214 881.366 693.134L568.5 512.5L881.366 331.867Z" stroke="white" stroke-width="2" mask="url(#path-14-inside-13_9_4)"/>
<circle cx="568" cy="512" r="303.5" stroke="white"/>
<path d="M157 749L976.26 276" stroke="white" stroke-width="5"/>
<path d="M567.5 45.5C650.358 45.5 731.756 67.0809 803.51 108.072C875.264 149.063 934.846 208.018 976.27 279.01" stroke="white" stroke-width="5"/>
<path d="M567.5 980.5C484.642 980.5 403.245 958.919 331.49 917.928C259.736 876.937 200.154 817.982 158.73 746.99" stroke="white" stroke-width="5"/>
<path d="M91.8327 494.509L91.6171 487.785L129.726 470.736L129.709 470.191L90.5853 455.62L90.3696 448.896L136.891 447.403L137.06 452.673L101.715 453.807L101.729 454.262L137.541 467.666L137.704 472.754L102.825 488.426L102.84 488.88L138.185 487.746L138.354 493.016L91.8327 494.509Z" fill="white"/>
<path d="M138.325 430.386L137.593 436.25L93.5234 413.525L94.2441 407.752L142.548 396.558L141.816 402.421L101.213 411.37L101.168 411.731L138.325 430.386ZM120.554 425.969L123.504 402.334L128.466 402.953L125.515 426.588L120.554 425.969Z" fill="white"/>
<path d="M117.87 351.36C115.574 351.036 113.563 351.649 111.838 353.2C110.112 354.751 108.89 356.889 108.171 359.613C107.646 361.606 107.508 363.434 107.759 365.099C108.013 366.748 108.594 368.14 109.502 369.272C110.413 370.39 111.587 371.139 113.023 371.517C114.224 371.834 115.332 371.821 116.348 371.478C117.352 371.116 118.259 370.556 119.07 369.798C119.867 369.037 120.579 368.206 121.208 367.307C121.823 366.403 122.35 365.563 122.79 364.786L125.226 360.54C125.843 359.449 126.612 358.257 127.533 356.964C128.458 355.657 129.563 354.468 130.848 353.396C132.123 352.307 133.599 351.521 135.278 351.039C136.956 350.557 138.85 350.595 140.96 351.151C143.392 351.793 145.421 353.01 147.048 354.802C148.679 356.58 149.752 358.837 150.268 361.575C150.788 364.297 150.592 367.387 149.68 370.845C148.829 374.068 147.573 376.722 145.911 378.806C144.252 380.876 142.315 382.339 140.099 383.196C137.886 384.038 135.526 384.223 133.019 383.749L134.503 378.124C136.241 378.425 137.798 378.225 139.174 377.523C140.54 376.802 141.696 375.743 142.644 374.348C143.581 372.934 144.286 371.334 144.757 369.546C145.306 367.466 145.462 365.509 145.224 363.676C144.972 361.839 144.366 360.276 143.405 358.989C142.43 357.697 141.121 356.835 139.481 356.402C137.986 356.008 136.66 356.105 135.502 356.692C134.344 357.28 133.293 358.178 132.347 359.386C131.402 360.594 130.501 361.931 129.644 363.397L126.601 368.518C124.662 371.767 122.485 374.17 120.069 375.726C117.652 377.283 114.928 377.661 111.895 376.861C109.375 376.196 107.358 374.935 105.842 373.078C104.315 371.203 103.337 368.97 102.907 366.381C102.467 363.773 102.626 361.034 103.383 358.162C104.148 355.262 105.349 352.82 106.984 350.839C108.605 348.853 110.482 347.437 112.618 346.59C114.757 345.728 116.971 345.56 119.261 346.086L117.87 351.36Z" fill="white"/>
<path d="M150.501 320.447L152.9 314.75L161.195 312.621L163.4 312.07L175.867 308.937L173.467 314.634L165.208 316.679L163.122 317.181L150.501 320.447ZM151.139 296.449C155.663 298.355 159.229 300.819 161.836 303.84C164.443 306.862 166.041 310.174 166.628 313.775C167.215 317.377 166.739 321.006 165.198 324.665C163.657 328.323 161.392 331.2 158.405 333.296C155.418 335.391 151.933 336.562 147.949 336.808C143.966 337.053 139.712 336.223 135.188 334.317C130.664 332.412 127.098 329.948 124.491 326.926C121.884 323.904 120.286 320.593 119.699 316.991C119.112 313.39 119.588 309.76 121.13 306.102C122.671 302.443 124.935 299.566 127.922 297.471C130.909 295.375 134.394 294.205 138.378 293.959C142.361 293.713 146.615 294.543 151.139 296.449ZM149.022 301.476C145.308 299.911 141.911 299.212 138.832 299.379C135.759 299.531 133.123 300.385 130.922 301.941C128.727 303.482 127.083 305.551 125.989 308.149C124.895 310.746 124.56 313.375 124.984 316.036C125.415 318.684 126.646 321.167 128.677 323.486C130.715 325.791 133.591 327.726 137.305 329.291C141.019 330.855 144.413 331.561 147.486 331.409C150.565 331.243 153.201 330.389 155.396 328.847C157.597 327.291 159.244 325.215 160.338 322.618C161.432 320.021 161.764 317.398 161.334 314.751C160.91 312.09 159.679 309.607 157.641 307.301C155.609 304.982 152.736 303.04 149.022 301.476Z" fill="white"/>
<path d="M155.166 243.129L158.108 238.322L184.393 254.412C187.107 256.073 189.138 258.196 190.487 260.78C191.831 263.344 192.409 266.158 192.221 269.223C192.02 272.28 190.966 275.365 189.059 278.479C187.153 281.594 184.885 283.936 182.254 285.505C179.61 287.067 176.837 287.839 173.935 287.821C171.027 287.782 168.217 286.932 165.503 285.271L139.218 269.181L142.161 264.374L168.058 280.226C169.996 281.413 171.983 282.043 174.017 282.115C176.038 282.18 177.964 281.689 179.795 280.642C181.62 279.575 183.21 277.936 184.562 275.727C185.915 273.517 186.651 271.356 186.772 269.245C186.879 267.125 186.44 265.187 185.455 263.429C184.465 261.651 183.001 260.168 181.063 258.982L155.166 243.129Z" fill="white"/>
<path d="M207.146 249.939L171.125 220.46L188.916 198.721L192.785 201.888L178.564 219.265L190.736 229.226L204.035 212.974L207.905 216.141L194.605 232.392L206.846 242.41L221.298 224.752L225.167 227.918L207.146 249.939Z" fill="white"/>
<path d="M235.063 217.253L203.055 183.46L214.474 172.645C217.114 170.144 219.708 168.542 222.257 167.84C224.795 167.126 227.21 167.165 229.504 167.956C231.797 168.747 233.887 170.138 235.773 172.129C237.659 174.12 238.924 176.272 239.569 178.583C240.213 180.894 240.111 183.286 239.262 185.76C238.402 188.224 236.663 190.695 234.044 193.175L224.804 201.927L221.303 198.231L230.412 189.604C232.216 187.895 233.418 186.256 234.018 184.686C234.629 183.105 234.723 181.597 234.301 180.16C233.88 178.702 233.028 177.296 231.747 175.943C230.465 174.59 229.092 173.647 227.628 173.114C226.163 172.581 224.615 172.566 222.983 173.068C221.34 173.56 219.606 174.67 217.78 176.4L210.586 183.214L239.155 213.377L235.063 217.253ZM236.591 187.006L259.286 194.31L254.534 198.811L231.971 191.382L236.591 187.006Z" fill="white"/>
<path d="M269.859 185.91L265.065 189.365L251.714 141.612L256.434 138.21L297.515 165.976L292.721 169.431L258.527 145.778L258.232 145.991L269.859 185.91ZM260.998 169.884L280.32 155.957L283.243 160.013L263.921 173.94L260.998 169.884Z" fill="white"/>
<path d="M320.443 153.163L307.727 159.844L286.078 118.64L299.357 111.663C303.354 109.563 307.207 108.59 310.918 108.746C314.621 108.889 318.037 110.097 321.167 112.372C324.289 114.634 326.971 117.898 329.212 122.163C331.467 126.455 332.644 130.552 332.743 134.454C332.835 138.342 331.856 141.886 329.806 145.086C327.748 148.272 324.627 150.964 320.443 153.163ZM310.391 152.796L317.795 148.906C321.202 147.116 323.68 144.975 325.229 142.484C326.779 139.992 327.465 137.244 327.29 134.238C327.114 131.233 326.145 128.053 324.383 124.7C322.636 121.374 320.588 118.795 318.24 116.965C315.885 115.122 313.29 114.124 310.454 113.971C307.61 113.804 304.579 114.567 301.36 116.258L293.393 120.444L310.391 152.796Z" fill="white"/>
<path d="M352.485 137.74L336.522 94.0172L362.91 84.3837L364.625 89.0805L343.532 96.7811L348.925 111.555L368.652 104.353L370.366 109.05L350.64 116.251L356.065 131.11L377.499 123.285L379.214 127.982L352.485 137.74Z" fill="white"/>
</svg>
